# generated from PmQm by Jehee Lee
:FULLY-SPECIFIED
:DEGREES
259
root 9.69773 3.91192 4.3306 49.967 85.4657 143.062
RightUpLeg -47.1371 -0.999508 -1.34999
RightLeg 81.2506 10.5953 -2.04638
RightFoot 6.17769 -1.51704 8.92678
RightToes 4.07452e-010 -1.59028e-015 9.93923e-017
Spine -0.315948 1.12889 -2.50538
Spine1 11.2633 2.86935 -6.89216
HEad -31.6783 0.899954 6.97626
LeftShoulder1 9.93923e-017 -0 1.22299e-017
LeftArm 39.1193 33.4403 -43.5672
LeftForeArm -34.1935 -26.9631 18.2899
LeftHand 1.17667 9.84717 -8.62565
RightShoulder 1.98785e-016 -4.96962e-017 1.55301e-017
RightArm 20.5892 -8.04694 36.5862
RightForeArm -34.6975 34.906 -31.2904
RightHand 1.27625 -13.2309 -0.867928
LeftUpLeg -3.96003 2.22196 3.4906
LeftLeg 13.5678 9.78954 5.21673
LeftFoot 5.97296 3.62311 -20.8715
LeftToes 1.53707e-010 -1.11459e-010 1.58109e-011
260
root 9.75077 3.89206 4.37752 44.868 85.3379 137.849
RightUpLeg -46.1192 -0.628693 -1.22716
RightLeg 79.9255 10.4787 -2.40158
RightFoot 6.14003 -1.48147 8.73604
RightToes 4.07452e-010 -1.59028e-015 9.93923e-017
Spine -0.407291 1.1383 -1.89576
Spine1 10.9299 2.99863 -7.52572
HEad -33.6095 1.05949 7.26555
LeftShoulder1 9.93923e-017 -0 1.22299e-017
LeftArm 43.9955 30.2541 -40.3167
LeftForeArm -35.7783 -25.8769 17.6176
LeftHand 1.21116 9.23623 -4.89569
RightShoulder 1.98785e-016 -4.96962e-017 1.55301e-017
RightArm 21.0032 -8.07155 32.6017
RightForeArm -35.143 33.4596 -30.0437
RightHand 1.35075 -13.5797 -1.47853
LeftUpLeg -4.24679 2.55113 3.8506
LeftLeg 13.9882 9.53693 5.17413
LeftFoot 5.8664 3.6714 -21.2654
LeftToes 1.53707e-010 -1.11459e-010 1.58109e-011
261
root 9.83774 3.872 4.40866 39.0752 85.0011 131.824
RightUpLeg -45.1456 -0.00200903 -1.2392
RightLeg 78.3102 10.3332 -2.71383
RightFoot 6.35479 -1.47689 8.61141
RightToes 4.07452e-010 -1.59028e-015 9.93923e-017
Spine -0.503491 1.24911 -1.37918
Spine1 10.1487 3.17947 -8.06419
HEad -34.7301 1.41633 8.03177
LeftShoulder1 9.93923e-017 -0 1.22299e-017
LeftArm 47.1797 27.0783 -37.5102
LeftForeArm -37.138 -24.4944 15.7712
LeftHand 1.23244 9.14225 -3.10161
RightShoulder 1.98785e-016 -4.96962e-017 1.55301e-017
RightArm 22.6618 -7.97214 29.4939
RightForeArm -35.564 30.5792 -27.7737
RightHand 1.39632 -13.8742 -1.68744
LeftUpLeg -4.69184 2.73707 4.05426
LeftLeg 14.4677 8.73903 5.0248
LeftFoot 5.87286 3.78134 -21.8817
LeftToes 1.53707e-010 -1.11459e-010 1.58109e-011
262
root 9.92983 3.86268 4.43007 34.2581 84.6205 126.654
RightUpLeg -44.0485 0.608048 -1.28135
RightLeg 76.2059 10.1622 -2.88749
RightFoot 6.95937 -1.52763 8.63335
RightToes 4.07452e-010 -1.59028e-015 9.93923e-017
Spine -0.951339 1.39386 -1.00399
Spine1 9.82552 3.35985 -8.35008
HEad -36.2939 2.51243 8.80456
LeftShoulder1 9.93923e-017 -0 1.22299e-017
LeftArm 46.4923 24.3361 -34.8171
LeftForeArm -36.7507 -23.6213 13.3885
LeftHand 1.24937 9.2327 -2.71354
RightShoulder 1.98785e-016 -4.96962e-017 1.55301e-017
RightArm 25.0611 -8.15826 26.6883
RightForeArm -36.7197 27.9492 -25.7977
RightHand 1.41653 -13.9516 -1.86101
LeftUpLeg -5.2255 2.7443 4.15549
LeftLeg 14.8275 7.95264 4.92488
LeftFoot 6.20497 4.0161 -22.8143
LeftToes 1.53707e-010 -1.11459e-010 1.58109e-011
263
root 10.0021 3.85924 4.45087 30.042 84.3842 121.983
RightUpLeg -42.7025 1.0691 -1.18315
RightLeg 73.4769 9.98051 -2.85531
RightFoot 7.41989 -1.5671 8.65373
RightToes 4.07452e-010 -1.59028e-015 9.93923e-017
Spine -1.76862 1.50861 -0.619443
Spine1 10.143 3.49657 -8.39546
HEad -37.5713 4.04026 8.97191
LeftShoulder1 9.93923e-017 -0 1.22299e-017
LeftArm 44.5274 22.2288 -32.1529
LeftForeArm -36.1676 -23.0185 11.6395
LeftHand 1.26756 9.30293 -2.20699
RightShoulder 1.98785e-016 -4.96962e-017 1.55301e-017
RightArm 27.2724 -8.91464 24.0766
RightForeArm -38.3369 26.2279 -24.515
RightHand 1.43859 -14.0315 -2.05302
LeftUpLeg -5.74042 2.68959 4.3034
LeftLeg 14.8369 7.58048 4.91242
LeftFoot 6.94568 4.3042 -23.5214
LeftToes 1.53707e-010 -1.11459e-010 1.58109e-011
264
root 10.0451 3.84084 4.48737 26.0361 84.2844 117.462
RightUpLeg -41.0984 1.4748 -0.936332
RightLeg 70.0018 9.72336 -2.88581
RightFoot 7.50383 -1.56042 8.58118
RightToes 4.07452e-010 -1.59028e-015 9.93923e-017
Spine -2.48083 1.61547 -0.210805
Spine1 10.245 3.5918 -8.32918
HEad -37.4681 5.14314 8.74683
LeftShoulder1 9.93923e-017 -0 1.22299e-017
LeftArm 41.9197 20.4634 -29.6887
LeftForeArm -34.0893 -22.1995 9.66306
LeftHand 1.28103 9.19002 -0.699271
RightShoulder 1.98785e-016 -4.96962e-017 1.55301e-017
RightArm 28.1855 -10.5503 21.8611
RightForeArm -39.8459 25.275 -23.7893
RightHand 1.48602 -14.5171 -1.9552
LeftUpLeg -6.24173 2.71909 4.60032
LeftLeg 14.599 7.26212 4.8185
LeftFoot 7.86506 4.56024 -23.8062
LeftToes 1.53707e-010 -1.11459e-010 1.58109e-011
265
root 10.0714 3.80329 4.54407 23.0876 84.2754 113.956
RightUpLeg -39.2663 1.81286 -0.68151
RightLeg 65.7315 9.24508 -3.29343
RightFoot 7.63481 -1.5518 8.47926
RightToes 4.07452e-010 -1.59028e-015 9.93923e-017
Spine -2.98907 1.72976 -0.004789350001
Spine1 9.88298 3.63998 -8.11995
HEad -36.6975 5.52156 8.69598
LeftShoulder1 9.93923e-017 -0 1.22299e-017
LeftArm 37.9703 18.9458 -27.6675
LeftForeArm -29.8757 -20.8457 7.01794
LeftHand 1.26518 8.78067 2.07916
RightShoulder 1.98785e-016 -4.96962e-017 1.55301e-017
RightArm 27.8225 -12.9637 20.0795
RightForeArm -40.9483 24.7782 -23.3986
RightHand 1.55931 -15.2706 -1.80903
LeftUpLeg -6.83089 2.84879 4.92008
LeftLeg 14.3597 6.94647 4.68015
LeftFoot 8.64928 4.74353 -23.853
LeftToes 1.53707e-010 -1.11459e-010 1.58109e-011
266
root 10.0882 3.76719 4.60776 21.6633 84.3976 111.876
RightUpLeg -37.2042 1.97652 -0.501039
RightLeg 60.7135 8.48607 -3.94318
RightFoot 7.94571 -1.56057 8.39866
RightToes 4.07452e-010 -1.59028e-015 9.93923e-017
Spine -3.82454 1.82362 0.009570630011
Spine1 9.8305 3.67047 -7.84245
HEad -36.6844 5.38347 8.99532
LeftShoulder1 9.93923e-017 -0 1.22299e-017
LeftArm 33.4479 17.9312 -26.1792
LeftForeArm -25.7342 -19.3246 4.70856
LeftHand 1.19993 8.15313 5.84965
RightShoulder 1.98785e-016 -4.96962e-017 1.55301e-017
RightArm 27.4588 -15.7595 18.6499
RightForeArm -41.1997 24.4166 -23.149
RightHand 1.63426 -15.6056 -2.27438
LeftUpLeg -7.58405 3.00811 5.17666
LeftLeg 14.212 6.74966 4.59406
LeftFoot 9.21921 4.90532 -24.0208
LeftToes 1.53707e-010 -1.11459e-010 1.58109e-011
267
root 10.0805 3.73941 4.66067 20.2165 84.6751 109.622
RightUpLeg -34.9275 2.12009 -0.311737
RightLeg 54.97 7.54437 -4.43271
RightFoot 8.03362 -1.55517 8.33423
RightToes 4.07452e-010 -1.59028e-015 9.93923e-017
Spine -5.27106 1.89674 0.271831
Spine1 10.4897 3.75528 -7.75439
HEad -37.6908 4.96948 9.48525
LeftShoulder1 9.93923e-017 -0 1.22299e-017
LeftArm 30.125 17.5147 -25.1768
LeftForeArm -23.6347 -18.31 3.51559
LeftHand 1.11381 7.61647 9.36063
RightShoulder 1.98785e-016 -4.96962e-017 1.55301e-017
RightArm 27.7481 -18.8497 17.5965
RightForeArm -40.3434 24.1011 -22.9953
RightHand 1.69016 -15.4536 -3.1713
LeftUpLeg -8.45597 3.20477 5.47654
LeftLeg 13.9738 6.65004 4.4996
LeftFoot 9.68775 5.07445 -24.3214
LeftToes 1.53707e-010 -1.11459e-010 1.58109e-011
268
root 10.041 3.69952 4.69738 16.8129 85.029 105.287
RightUpLeg -32.519 2.66588 -0.0385024
RightLeg 48.5129 6.47779 -4.63385
RightFoot 7.91705 -1.53533 8.27486
RightToes 4.07452e-010 -1.59028e-015 9.93923e-017
Spine -6.91283 1.96893 0.940859
Spine1 11.281 3.86292 -7.79776
HEad -38.8671 4.52362 10.0343
LeftShoulder1 9.93923e-017 -0 1.22299e-017
LeftArm 28.5767 17.6278 -24.5182
LeftForeArm -23.2175 -17.9642 3.22543
LeftHand 1.06968 7.40224 11.3286
RightShoulder 1.98785e-016 -4.96962e-017 1.55301e-017
RightArm 28.1844 -22.3147 17.0442
RightForeArm -39.1547 24.0512 -23.0324
RightHand 1.75443 -15.6005 -3.7274
LeftUpLeg -9.36963 3.48108 5.94658
LeftLeg 13.5058 6.46054 4.25374
LeftFoot 10.1326 5.22355 -24.5414
LeftToes 1.53707e-010 -1.11459e-010 1.58109e-011
269
root 9.99887 3.63877 4.72386 12.192 85.276 99.6977
RightUpLeg -30.1045 3.93072 0.161235
RightLeg 41.6444 5.22957 -4.67229
RightFoot 8.12995 -1.53193 8.17274
RightToes 4.07452e-010 -1.59028e-015 9.93923e-017
Spine -8.31483 2.02978 1.53285
Spine1 11.6877 3.88463 -7.64173
HEad -39.8119 4.35939 10.5177
LeftShoulder1 9.93923e-017 -0 1.22299e-017
LeftArm 28.0682 18.3244 -24.0821
LeftForeArm -23.3524 -17.9887 3.36957
LeftHand 1.04973 7.32014 11.9007
RightShoulder 1.98785e-016 -4.96962e-017 1.55301e-017
RightArm 28.9511 -25.7435 17.1731
RightForeArm -38.653 24.0288 -23.0475
RightHand 1.87552 -16.1999 -4.21971
LeftUpLeg -10.3466 3.78761 6.49667
LeftLeg 13.0897 6.12744 3.90498
LeftFoot 10.4858 5.36646 -24.8199
LeftToes 1.53707e-010 -1.11459e-010 1.58109e-011
